<?xml version="1.0" encoding="UTF-8"?>
<svg version="1.1" xmlns="http://www.w3.org/2000/svg" width="833" height="313">
<path d="M0 0 C1.23922714 -0.00525696 2.47845428 -0.01051392 3.75523376 -0.01593018 C7.11286687 -0.02677245 10.46993572 -0.02437151 13.82753563 -0.01479292 C17.36749313 -0.00711369 20.90742909 -0.01426457 24.4473877 -0.01895142 C30.38830817 -0.02438521 36.32911619 -0.01728024 42.27001953 -0.00292969 C49.10531583 0.01339229 55.94034353 0.00810209 62.77563334 -0.0084089 C68.68010687 -0.02209201 74.58450029 -0.02391034 80.48898458 -0.0160929 C83.99978623 -0.01145361 87.51046229 -0.01068674 91.02125549 -0.02070236 C94.94005498 -0.03110425 98.85856178 -0.01662397 102.77734375 0 C104.4859684 -0.00910904 104.4859684 -0.00910904 106.22911072 -0.0184021 C121.95626054 0.10427401 135.15238688 4.07445118 146.63085938 15.01318359 C158.20923355 27.19251145 160.0404305 42.34633859 160.03393555 58.46704102 C160.03729416 59.66798401 160.04065277 60.868927 160.04411316 62.10626221 C160.05196122 65.38548439 160.05528937 68.66466848 160.05592895 71.94389892 C160.05664232 73.99853963 160.05878212 76.0531738 160.06142616 78.10781288 C160.07066579 85.29282677 160.07476297 92.47782217 160.07397461 99.6628418 C160.07337488 106.33210811 160.08390965 113.00129328 160.09971827 119.67053908 C160.1128517 125.41859474 160.11815605 131.16662408 160.1175192 136.91469461 C160.11726582 140.33778862 160.12002736 143.76081049 160.13069725 147.18388939 C160.14055466 151.01011146 160.13759616 154.83612774 160.1315918 158.66235352 C160.1372113 159.77705521 160.14283081 160.8917569 160.14862061 162.04023743 C160.08339012 178.49601685 156.7715514 193.35937397 144.88867188 205.38818359 C127.31172338 220.60012739 103.72419864 218.69568974 81.91601562 218.65380859 C79.41890933 218.65515912 76.92180328 218.65710287 74.42469788 218.65960693 C69.21629305 218.66253941 64.00795728 218.65832096 58.79956055 218.64892578 C52.16062141 218.63752654 45.52184396 218.64410585 38.88291073 218.65607071 C33.73444932 218.66333512 28.58602556 218.66098053 23.43756294 218.65581512 C20.99101301 218.65449158 18.54445953 218.65608031 16.09791374 218.66077423 C-28.29764168 218.7272897 -28.29764168 218.7272897 -44.81835938 202.73583984 C-55.46677358 191.27868532 -57.5784023 176.13862596 -57.49951172 161.07739258 C-57.50476868 159.817052 -57.51002563 158.55671143 -57.51544189 157.25817871 C-57.52896077 153.84287184 -57.52388219 150.42784094 -57.51430464 147.01253009 C-57.50662858 143.41338105 -57.51377528 139.81425327 -57.51846313 136.21510315 C-57.52389713 130.17583031 -57.51679069 124.13666809 -57.50244141 118.09741211 C-57.48611197 111.14508183 -57.49141496 104.19301552 -57.50792062 97.2406916 C-57.52159426 91.23772108 -57.52342684 85.23482938 -57.51560462 79.2318483 C-57.51096115 75.66127552 -57.5102105 72.09082628 -57.52021408 68.52026176 C-57.53059886 64.53654564 -57.51615109 60.55327504 -57.49951172 56.56958008 C-57.50558441 55.40820023 -57.5116571 54.24682037 -57.51791382 53.05024719 C-57.40600286 38.49875799 -53.57688949 24.83259771 -43.48632812 14.01318359 C-31.32385122 2.6869906 -16.13912242 -0.08604107 0 0 Z " fill="#5A9BFA" transform="translate(83.111328125,45.61181640625)"/>
<path d="M0 0 C1.06149186 5.0955694 1.04853341 9.85098184 0.87890625 15.015625 C0.85520462 15.89075241 0.83150299 16.76587982 0.80708313 17.66752625 C0.75613275 19.54801407 0.7029142 21.42844156 0.64764404 23.30880737 C0.50268759 28.3161436 0.38185741 33.32404678 0.26171875 38.33203125 C0.23752869 39.33653824 0.21333862 40.34104523 0.18841553 41.37599182 C-0.01041868 49.89711633 -0.11976355 58.41412956 -0.125 66.9375 C-0.12580566 68.24823486 -0.12661133 69.55896973 -0.12744141 70.90942383 C-0.10829792 79.2774557 0.08654177 87.63573545 0.33203125 96 C0.37517456 97.54561363 0.37517456 97.54561363 0.41918945 99.12245178 C0.56209801 104.23811269 0.72012256 109.35233 0.90771484 114.46655273 C0.96383878 116.33054776 1.01936914 118.19456079 1.07421875 120.05859375 C1.11158646 120.91940552 1.14895416 121.78021729 1.18745422 122.66711426 C1.33806323 128.5637621 1.33806323 128.5637621 -0.33560181 130.72346497 C-2.91081126 132.69856029 -5.15005788 132.35423336 -8.34765625 132.328125 C-9.59224609 132.32296875 -10.83683594 132.3178125 -12.11914062 132.3125 C-13.42044922 132.291875 -14.72175781 132.27125 -16.0625 132.25 C-17.36767578 132.24484375 -18.67285156 132.2396875 -20.01757812 132.234375 C-29.69173366 132.15413317 -29.69173366 132.15413317 -32 131 C-32 112.19 -32 93.38 -32 74 C-36.71246753 87.8494577 -36.71246753 87.8494577 -41.42260742 101.69970703 C-44.22457714 109.9333379 -47.02724534 118.16694424 -49.92578125 126.3671875 C-50.30774658 127.4485498 -50.68971191 128.52991211 -51.08325195 129.64404297 C-52 132 -52 132 -53 133 C-56.00003445 133.14177857 -58.99757235 133.04228771 -62 133 C-65.65120775 126.08351563 -68.59621923 119.10920357 -71.20703125 111.7421875 C-71.57728928 110.71312286 -71.9475473 109.68405823 -72.32902527 108.62380981 C-73.49600595 105.37625984 -74.65438813 102.12572183 -75.8125 98.875 C-76.60815453 96.65604574 -77.40437327 94.4372937 -78.20117188 92.21875 C-80.14063822 86.81481883 -82.07307814 81.40841609 -84 76 C-83.99555878 76.67207489 -83.99111755 77.34414978 -83.98654175 78.03659058 C-83.94240366 85.01151408 -83.91217333 91.98639813 -83.89013672 98.96142578 C-83.88005936 101.56691091 -83.8663973 104.17238469 -83.84912109 106.77783203 C-83.82494898 110.51597899 -83.8135344 114.25397685 -83.8046875 117.9921875 C-83.79436493 119.16304901 -83.78404236 120.33391052 -83.77340698 121.54025269 C-83.77325592 122.62122223 -83.77310486 123.70219177 -83.77294922 124.81591797 C-83.768508 125.77078094 -83.76406677 126.72564392 -83.75949097 127.70944214 C-84 130 -84 130 -86 132 C-88.67382812 132.24291992 -88.67382812 132.24291992 -92.03125 132.23046875 C-93.83529297 132.22756836 -93.83529297 132.22756836 -95.67578125 132.22460938 C-97.56876953 132.20624023 -97.56876953 132.20624023 -99.5 132.1875 C-101.39298828 132.1865332 -101.39298828 132.1865332 -103.32421875 132.18554688 C-112.71953632 132.14023184 -112.71953632 132.14023184 -115 131 C-115 88.43 -115 45.86 -115 2 C-111.70265354 0.90088451 -109.27041255 0.8860544 -105.80078125 0.90234375 C-104.59228516 0.90556641 -103.38378906 0.90878906 -102.13867188 0.91210938 C-100.2447168 0.92467773 -100.2447168 0.92467773 -98.3125 0.9375 C-96.40114258 0.94426758 -96.40114258 0.94426758 -94.45117188 0.95117188 C-91.30073436 0.96297127 -88.15039051 0.97943403 -85 1 C-81.46164005 7.69653605 -78.76942824 14.58227222 -76.12109375 21.671875 C-75.42847877 23.50519565 -74.73585637 25.33851354 -74.04279423 27.17166519 C-72.34812697 31.65832691 -70.66296317 36.1485622 -68.97875977 40.63916016 C-68.0283241 43.17233415 -67.07443083 45.70415754 -66.11695862 48.23468018 C-65.21868784 50.60979205 -64.32585366 52.9869688 -63.43907166 55.36639404 C-63.03177322 56.44141174 -62.62447479 57.51642944 -62.20483398 58.62402344 C-61.85049789 59.56808044 -61.4961618 60.51213745 -61.13108826 61.48480225 C-60.01306407 63.97094946 -58.7215593 65.89701831 -57 68 C-49.54407734 50.27303673 -42.38052881 32.45104444 -35.45849609 14.50878906 C-35.16797867 13.75621323 -34.87746124 13.00363739 -34.57814026 12.22825623 C-34.03140934 10.81076487 -33.48573053 9.39286711 -32.94126892 7.97450256 C-31.10935367 3.21870734 -31.10935367 3.21870734 -30 1 C-26.50014278 0.83024428 -23.00009554 0.66476277 -19.5 0.5 C-18.51773438 0.45230469 -17.53546875 0.40460938 -16.5234375 0.35546875 C-11.00800467 0.09808188 -5.52135535 -0.05258434 0 0 Z " fill="#FEFEFE" transform="translate(803,87)"/>
<path d="M0 0 C0.86753906 0.44730469 1.73507812 0.89460938 2.62890625 1.35546875 C16.67934597 9.16592183 26.32875928 23.77725082 31 39 C36.65813933 61.06505774 35.19066527 84.58239651 24.47265625 104.89453125 C16.82352193 117.76307486 6.1557131 127.23640456 -8.29296875 131.39575195 C-12.70792051 132.38123226 -16.99328125 132.43491207 -21.5 132.375 C-22.37269531 132.38660156 -23.24539063 132.39820313 -24.14453125 132.41015625 C-36.31767973 132.35605337 -47.31305835 127.74631795 -56.44140625 119.65234375 C-73.49036172 101.5778872 -78.04758664 81.26366945 -77.375 57.19140625 C-76.48582717 38.83276596 -69.36345841 21.74958929 -56 9 C-55.02933594 8.01773438 -55.02933594 8.01773438 -54.0390625 7.015625 C-40.65678963 -5.76581113 -16.33352146 -8.77824864 0 0 Z M-38.78125 39.15625 C-45.52803948 48.81341926 -47.96638502 58.2515193 -47 70 C-45.1859987 79.38691032 -41.80604152 87.3852629 -34.19140625 93.4375 C-28.56172868 96.80828407 -22.37277701 96.83736351 -16 96 C-8.72902799 93.90073275 -3.26178462 86.89001612 0.39453125 80.6015625 C4.79035622 70.50514472 4.84288196 57.53396938 0.875 47.3125 C-2.50874417 40.45970719 -6.49991922 34.80656023 -13.66796875 31.66796875 C-23.80776445 28.76360516 -32.08044859 31.04475356 -38.78125 39.15625 Z " fill="#FEFEFE" transform="translate(643,89)"/>
<path d="M0 0 C0.86753906 0.44730469 1.73507812 0.89460938 2.62890625 1.35546875 C16.67934597 9.16592183 26.32875928 23.77725082 31 39 C36.65813933 61.06505774 35.19066527 84.58239651 24.47265625 104.89453125 C16.82352193 117.76307486 6.1557131 127.23640456 -8.29296875 131.39575195 C-12.70792051 132.38123226 -16.99328125 132.43491207 -21.5 132.375 C-22.37269531 132.38660156 -23.24539063 132.39820313 -24.14453125 132.41015625 C-36.31767973 132.35605337 -47.31305835 127.74631795 -56.44140625 119.65234375 C-73.49036172 101.5778872 -78.04758664 81.26366945 -77.375 57.19140625 C-76.48582717 38.83276596 -69.36345841 21.74958929 -56 9 C-55.02933594 8.01773438 -55.02933594 8.01773438 -54.0390625 7.015625 C-40.65678963 -5.76581113 -16.33352146 -8.77824864 0 0 Z M-38.78125 39.15625 C-45.52803948 48.81341926 -47.96638502 58.2515193 -47 70 C-45.1859987 79.38691032 -41.80604152 87.3852629 -34.19140625 93.4375 C-28.56172868 96.80828407 -22.37277701 96.83736351 -16 96 C-8.72902799 93.90073275 -3.26178462 86.89001612 0.39453125 80.6015625 C4.79035622 70.50514472 4.84288196 57.53396938 0.875 47.3125 C-2.50874417 40.45970719 -6.49991922 34.80656023 -13.66796875 31.66796875 C-23.80776445 28.76360516 -32.08044859 31.04475356 -38.78125 39.15625 Z " fill="#FEFEFE" transform="translate(524,89)"/>
<path d="M0 0 C1.23919189 -0.0213501 2.47838379 -0.0427002 3.75512695 -0.06469727 C16.81172605 -0.11297377 28.27347365 2.23155316 38.3125 10.99609375 C45.14809016 18.08212579 48.84003896 27.48580507 49.3125 37.25 C49.35117187 37.99378906 49.38984375 38.73757812 49.4296875 39.50390625 C49.82696611 53.25416047 47.45046254 65.28997819 37.99609375 75.5234375 C36.3125 77.25 36.3125 77.25 34.53515625 78.6640625 C33.04808898 80.20971946 33.04808898 80.20971946 33.5769043 82.43920898 C34.42840232 85.69287534 35.58875818 88.6938239 36.859375 91.80859375 C37.11245422 92.43419693 37.36553345 93.05980011 37.62628174 93.70436096 C38.43422965 95.70044478 39.24784007 97.69414713 40.0625 99.6875 C43.2218043 107.43453795 46.36108668 115.18825954 49.265625 123.03515625 C49.68489258 124.15929932 50.10416016 125.28344238 50.53613281 126.44165039 C51.3125 129.25 51.3125 129.25 50.3125 132.25 C39.49797252 133.11039692 29.12404832 133.2729267 18.3125 132.25 C14.06620003 123.30459557 11.06683329 113.95596421 7.94335938 104.57836914 C7.22500136 102.42684897 6.49957502 100.2778109 5.7734375 98.12890625 C5.55569672 97.46750137 5.33795593 96.8060965 5.11361694 96.12464905 C4.14461529 93.26458444 3.47839837 91.41589837 1.3125 89.25 C-1.35699409 89.00684344 -1.35699409 89.00684344 -4.3125 89.125 C-5.81683594 89.15207031 -5.81683594 89.15207031 -7.3515625 89.1796875 C-8.12242187 89.20289063 -8.89328125 89.22609375 -9.6875 89.25 C-9.80114093 95.32347613 -9.64754266 101.31669179 -9.1875 107.375 C-8.58073229 115.67318936 -8.59589019 123.93386524 -8.6875 132.25 C-19.40673513 133.03996631 -29.98765245 133.73838683 -40.6875 132.25 C-41.6875 131.25 -41.6875 131.25 -41.81054783 129.11231136 C-41.80962604 128.1619428 -41.80870424 127.21157423 -41.80775452 126.23240662 C-41.80912918 125.14560608 -41.81050385 124.05880554 -41.81192017 122.93907166 C-41.80652725 121.13509666 -41.80652725 121.13509666 -41.80102539 119.29467773 C-41.80117142 118.03632111 -41.80131744 116.77796448 -41.8014679 115.48147583 C-41.80175585 112.02088747 -41.79585949 108.56033348 -41.78889394 105.09975314 C-41.78266003 101.48691909 -41.78205657 97.87408433 -41.78086853 94.26124573 C-41.77775532 87.41536492 -41.76954208 80.5695 -41.75951904 73.7236262 C-41.74835757 65.93173411 -41.74284737 58.13984127 -41.73782361 50.34794319 C-41.72735946 34.31528614 -41.70976023 18.2826451 -41.6875 2.25 C-29.28686227 -1.88354591 -12.92335201 0.11632541 0 0 Z M-10.6875 31.25 C-10.96667295 34.45813626 -10.96667295 34.45813626 -10.8828125 38.2265625 C-10.8799826 38.91181 -10.87715271 39.5970575 -10.87423706 40.30307007 C-10.86303281 42.49389027 -10.83792859 44.68430316 -10.8125 46.875 C-10.80247048 48.3593691 -10.79334458 49.8437446 -10.78515625 51.328125 C-10.76309294 54.96888261 -10.72856176 58.60940156 -10.6875 62.25 C-5.45649423 64.86550288 4.30903629 64.02659654 9.8203125 62.6015625 C13.43287693 60.77182207 15.56413583 58.11443211 16.87890625 54.30078125 C18.30894625 47.53707857 18.04583729 40.23716684 14.3125 34.25 C9.00378413 29.93666835 4.96879417 29.0972404 -1.75 29.0625 C-2.99910156 29.04832031 -4.24820313 29.03414062 -5.53515625 29.01953125 C-8.78515087 28.91187395 -8.78515087 28.91187395 -10.6875 31.25 Z " fill="#FEFEFE" transform="translate(390.6875,86.75)"/>
<path d="M0 0 C31.02 0 62.04 0 94 0 C94 1.65 94 3.3 94 5 C95.65 5 97.3 5 99 5 C99 6.98 99 8.96 99 11 C100.65 11 102.3 11 104 11 C104 16.28 104 21.56 104 27 C102.68 27 101.36 27 100 27 C99.67 42.18 99.34 57.36 99 73 C97.02 73 95.04 73 93 73 C93 74.65 93 76.3 93 78 C69.24 78 45.48 78 21 78 C21 76.35 21 74.7 21 73 C15.72 73 10.44 73 5 73 C5 71.35 5 69.7 5 68 C3.35 68 1.7 68 0 68 C0 45.56 0 23.12 0 0 Z " fill="#E4EAFA" transform="translate(64,117)"/>
<path d="M0 0 C1.74182053 0.01640533 1.74182053 0.01640533 3.51882935 0.03314209 C5.48624588 0.0487619 5.48624588 0.0487619 7.4934082 0.06469727 C8.93694718 0.08194974 10.38047952 0.09976542 11.82400513 0.11810303 C13.29512508 0.13478723 14.76624528 0.15144955 16.23736572 0.16809082 C19.32604231 0.20462082 22.41462049 0.24585612 25.50320435 0.28948975 C29.46332232 0.34443214 33.42338182 0.38099098 37.38374138 0.41312027 C40.42419379 0.44097379 43.4643648 0.48202982 46.50461197 0.52672577 C47.96460521 0.54593864 49.42467178 0.56022565 50.88476181 0.56952667 C52.92699187 0.5838395 54.96904815 0.61856595 57.01101685 0.65423584 C58.75522415 0.67541473 58.75522415 0.67541473 60.53466797 0.69702148 C63.39431763 1.10247803 63.39431763 1.10247803 65.2612915 2.50402832 C67.16585721 5.19095004 67.04777409 7.8476131 67.22146606 11.06121826 C67.33454119 13.05073353 67.48017156 15.03873204 67.66213989 17.02313232 C68.19041306 26.43025837 65.31731831 32.57262375 60.64431763 40.53997803 C59.95237765 41.76720199 59.26320825 42.99599182 58.57669067 44.22625732 C57.19190549 46.69973417 55.79370063 49.16471038 54.3821106 51.62298584 C51.57950707 56.51130635 48.89479567 61.46298608 46.20681763 66.41497803 C45.73308716 67.28001953 45.25935669 68.14506104 44.77127075 69.03631592 C39.1534968 79.30786145 33.77110793 89.70331607 28.39431763 100.10247803 C32.4362282 99.96296258 36.47777505 99.81474758 40.51931763 99.66497803 C41.661427 99.62566162 42.80353638 99.58634521 43.98025513 99.5458374 C45.08884888 99.50394287 46.19744263 99.46204834 47.33963013 99.41888428 C48.35557251 99.38222656 49.37151489 99.34556885 50.41824341 99.30780029 C53.42220538 99.14901891 53.42220538 99.14901891 56.4680481 98.58660889 C59.14141906 98.14431833 61.5671198 97.99903564 64.26931763 98.03997803 C65.0504895 98.04900146 65.83166138 98.0580249 66.63650513 98.06732178 C67.21658325 98.07892334 67.79666138 98.0905249 68.39431763 98.10247803 C68.60355658 109.65711782 68.50852473 120.70086114 66.39431763 132.10247803 C63.03214233 133.22320313 60.58444886 133.19203064 57.04275513 133.14007568 C55.73129517 133.12320709 54.41983521 133.1063385 53.06863403 133.08895874 C51.63552433 133.06507203 50.20241892 133.04092638 48.76931763 133.01654053 C47.30106061 132.99476757 45.83279875 132.97331819 44.36453247 132.95217896 C41.28780914 132.90669304 38.21117414 132.85747316 35.134552 132.80560303 C31.19020658 132.73937562 27.24579205 132.6820969 23.30126953 132.62757301 C20.26950302 132.58473264 17.23782165 132.53730701 14.20614624 132.4884758 C12.75169985 132.46557311 11.29723082 132.44406427 9.84274292 132.42396927 C7.81038436 132.39517109 5.77812549 132.3595783 3.74588013 132.32366943 C2.58910767 132.30510895 1.43233521 132.28654846 0.24050903 132.26742554 C-2.60568237 132.10247803 -2.60568237 132.10247803 -5.60568237 131.10247803 C-9.9530359 116.78912869 -10.05727711 105.66880473 -3.13717651 92.52996826 C0.07486818 86.70873204 3.446963 80.98474289 6.89089966 75.29827881 C10.40386728 69.46939844 13.58230338 63.46718021 16.7593689 57.45080566 C17.67375065 55.72730532 18.60286248 54.01164467 19.53250122 52.29632568 C23.10975103 45.68150174 26.38255028 38.99349079 29.39431763 32.10247803 C28.37483032 32.13800781 27.35534302 32.1735376 26.30496216 32.21014404 C22.5294132 32.34032664 18.75366391 32.46355218 14.97781372 32.58465576 C13.34233369 32.63808902 11.70691452 32.69341943 10.07156372 32.75067139 C7.72355269 32.83254563 5.37540872 32.90763785 3.02713013 32.98138428 C2.2937442 33.00841934 1.56035828 33.03545441 0.80474854 33.06330872 C-4.37793896 33.21634973 -4.37793896 33.21634973 -6.60568237 32.10247803 C-6.77140139 25.12786908 -6.15458025 18.50267528 -5.16818237 11.60247803 C-5.03347534 10.60216553 -4.89876831 9.60185303 -4.75997925 8.57122803 C-3.58593674 0.14103013 -3.58593674 0.14103013 0 0 Z " fill="#FEFEFE" transform="translate(269.6056823730469,86.89752197265625)"/>
<path d="M0 0 C1.65 0 3.3 0 5 0 C5 3.3 5 6.6 5 10 C3.68 10.33 2.36 10.66 1 11 C0.67 26.51 0.34 42.02 0 58 C1.65 58 3.3 58 5 58 C5 62.95 5 67.9 5 73 C12.26 73 19.52 73 27 73 C27 74.65 27 76.3 27 78 C50.76 78 74.52 78 99 78 C99 76.35 99 74.7 99 73 C100.98 73 102.96 73 105 73 C104.99476318 71.78417236 104.98952637 70.56834473 104.98413086 69.31567383 C104.96600376 64.79631285 104.95453979 60.27695508 104.94506836 55.75756836 C104.94004578 53.80313577 104.93322651 51.84870694 104.92456055 49.89428711 C104.91240411 47.08185907 104.90675087 44.26948081 104.90234375 41.45703125 C104.89718246 40.58601273 104.89202118 39.7149942 104.88670349 38.81758118 C104.88632846 34.74374461 104.97178467 30.97410561 106 27 C107.32 27 108.64 27 110 27 C110 21.72 110 16.44 110 11 C108.35 11 106.7 11 105 11 C105 9.02 105 7.04 105 5 C103.35 5 101.7 5 100 5 C100 3.35 100 1.7 100 0 C103.3 0 106.6 0 110 0 C110 3.3 110 6.6 110 10 C115.61 10.33 121.22 10.66 127 11 C127 12.98 127 14.96 127 17 C125.35 17 123.7 17 122 17 C122 18.65 122 20.3 122 22 C120.35 22 118.7 22 117 22 C117 33.88 117 45.76 117 58 C118.65 58 120.3 58 122 58 C122 61.63 122 65.26 122 69 C125.3 69 128.6 69 132 69 C132 70.65 132 72.3 132 74 C133.98 74 135.96 74 138 74 C138 75.65 138 77.3 138 79 C143.28 79 148.56 79 154 79 C154 55.24 154 31.48 154 7 C155.32 6.67 156.64 6.34 158 6 C159.26464693 9.88097018 159.13328957 13.76462955 159.11352539 17.79785156 C159.11367142 18.57872131 159.11381744 19.35959106 159.1139679 20.16412354 C159.11327242 22.73965249 159.10549712 25.31510871 159.09765625 27.890625 C159.09579077 29.67852743 159.09436748 31.46643037 159.09336853 33.2543335 C159.08955357 37.95610978 159.07973198 42.65785508 159.06866455 47.35961914 C159.05842849 52.15901266 159.0538662 56.9584112 159.04882812 61.7578125 C159.03810881 71.1718886 159.02104463 80.58594172 159 90 C157.27103357 90.16615943 155.54181605 90.32970718 153.8125 90.4921875 C152.84957031 90.5835498 151.88664063 90.67491211 150.89453125 90.76904297 C142.86068377 91.41007027 134.998948 90.85159903 127 90 C127 88.35 127 86.7 127 85 C124.13275314 85.57344937 123.1385485 85.8614515 121 88 C120.81548975 78.58997722 120.81548975 78.58997722 122 74 C120.68 74.33 119.36 74.66 118 75 C117.95101562 75.63808594 117.90203125 76.27617187 117.8515625 76.93359375 C117.73941406 78.17302734 117.73941406 78.17302734 117.625 79.4375 C117.52058594 80.67306641 117.52058594 80.67306641 117.4140625 81.93359375 C117.27742188 82.61550781 117.14078125 83.29742187 117 84 C115 85 115 85 111 85 C110.505 86.98 110.505 86.98 110 89 C110.66 89.33 111.32 89.66 112 90 C111.34 91.65 110.68 93.3 110 95 C97.97793423 95.02317818 85.95587378 95.04094305 73.93379021 95.05181217 C68.35135992 95.057029 62.76894492 95.0641049 57.18652344 95.07543945 C51.79841079 95.08631092 46.41031286 95.09228589 41.02219009 95.09487724 C38.96732476 95.0967238 36.91246023 95.10032964 34.85760117 95.10573006 C31.9778037 95.11299697 29.09806689 95.11398855 26.21826172 95.11352539 C25.37021469 95.11712067 24.52216766 95.12071594 23.64842224 95.12442017 C19.31709914 95.1168906 15.26568545 94.86745003 11 94 C11 92.35 11 90.7 11 89 C9.02 89 7.04 89 5 89 C5.33 87.35 5.66 85.7 6 84 C3.03 84.495 3.03 84.495 0 85 C0 79.39 0 73.78 0 68 C-2.475 68.495 -2.475 68.495 -5 69 C-5 48.21 -5 27.42 -5 6 C-3.35 5.67 -1.7 5.34 0 5 C0 3.35 0 1.7 0 0 Z " fill="#336BC7" transform="translate(58,117)"/>
<path d="M0 0 C1.65 0 3.3 0 5 0 C5 3.3 5 6.6 5 10 C3.68 10.33 2.36 10.66 1 11 C0.67 26.51 0.34 42.02 0 58 C1.65 58 3.3 58 5 58 C5 62.95 5 67.9 5 73 C12.26 73 19.52 73 27 73 C27 74.65 27 76.3 27 78 C50.76 78 74.52 78 99 78 C99 76.35 99 74.7 99 73 C100.98 73 102.96 73 105 73 C104.99476318 71.78417236 104.98952637 70.56834473 104.98413086 69.31567383 C104.96600376 64.79631285 104.95453979 60.27695508 104.94506836 55.75756836 C104.94004578 53.80313577 104.93322651 51.84870694 104.92456055 49.89428711 C104.91240411 47.08185907 104.90675087 44.26948081 104.90234375 41.45703125 C104.89718246 40.58601273 104.89202118 39.7149942 104.88670349 38.81758118 C104.88632846 34.74374461 104.97178467 30.97410561 106 27 C107.32 27 108.64 27 110 27 C110 43.83 110 60.66 110 78 C108.35 78 106.7 78 105 78 C105 79.98 105 81.96 105 84 C77.28 84 49.56 84 21 84 C21 82.35 21 80.7 21 79 C19.35 79 17.7 79 16 79 C16 82.3 16 85.6 16 89 C47.68 89 79.36 89 112 89 C111.34 90.98 110.68 92.96 110 95 C97.97793423 95.02317818 85.95587378 95.04094305 73.93379021 95.05181217 C68.35135992 95.057029 62.76894492 95.0641049 57.18652344 95.07543945 C51.79841079 95.08631092 46.41031286 95.09228589 41.02219009 95.09487724 C38.96732476 95.0967238 36.91246023 95.10032964 34.85760117 95.10573006 C31.9778037 95.11299697 29.09806689 95.11398855 26.21826172 95.11352539 C25.37021469 95.11712067 24.52216766 95.12071594 23.64842224 95.12442017 C19.31709914 95.1168906 15.26568545 94.86745003 11 94 C11 92.35 11 90.7 11 89 C9.02 89 7.04 89 5 89 C5.33 87.35 5.66 85.7 6 84 C3.03 84.495 3.03 84.495 0 85 C0 79.39 0 73.78 0 68 C-2.475 68.495 -2.475 68.495 -5 69 C-5 48.21 -5 27.42 -5 6 C-3.35 5.67 -1.7 5.34 0 5 C0 3.35 0 1.7 0 0 Z " fill="#286BD0" transform="translate(58,117)"/>
<path d="M0 0 C3.3 0 6.6 0 10 0 C10 1.65 10 3.3 10 5 C11.65 5 13.3 5 15 5 C15 13.58 15 22.16 15 31 C13.68 31 12.36 31 11 31 C10.67 44.86 10.34 58.72 10 73 C4.72 73 -0.56 73 -6 73 C-6 71.35 -6 69.7 -6 68 C-9.3 68 -12.6 68 -16 68 C-16 64.37 -16 60.74 -16 57 C-17.65 57 -19.3 57 -21 57 C-21 45.12 -21 33.24 -21 21 C-19.35 21 -17.7 21 -16 21 C-16 19.35 -16 17.7 -16 16 C-14.35 16 -12.7 16 -11 16 C-11 14.02 -11 12.04 -11 10 C-9.02 10 -7.04 10 -5 10 C-5 8.35 -5 6.7 -5 5 C-3.35 5 -1.7 5 0 5 C0 3.35 0 1.7 0 0 Z " fill="#E5EBFB" transform="translate(196,118)"/>
<path d="M0 0 C1.32 0 2.64 0 4 0 C4 16.83 4 33.66 4 51 C2.35 51 0.7 51 -1 51 C-1 52.98 -1 54.96 -1 57 C-28.72 57 -56.44 57 -85 57 C-85 55.02 -85 53.04 -85 51 C-86.65 51 -88.3 51 -90 51 C-90 49.35 -90 47.7 -90 46 C-86.37 46 -82.74 46 -79 46 C-79 47.65 -79 49.3 -79 51 C-55.24 51 -31.48 51 -7 51 C-7 49.35 -7 47.7 -7 46 C-5.02 46 -3.04 46 -1 46 C-1.00523682 44.78417236 -1.01047363 43.56834473 -1.01586914 42.31567383 C-1.03399624 37.79631285 -1.04546021 33.27695508 -1.05493164 28.75756836 C-1.05995422 26.80313577 -1.06677349 24.84870694 -1.07543945 22.89428711 C-1.08759589 20.08185907 -1.09324913 17.26948081 -1.09765625 14.45703125 C-1.10281754 13.58601273 -1.10797882 12.7149942 -1.11329651 11.81758118 C-1.11367154 7.74374461 -1.02821533 3.97410561 0 0 Z " fill="#677BB7" transform="translate(164,144)"/>
<path d="M0 0 C29.7 0 59.4 0 90 0 C90 1.65 90 3.3 90 5 C60.63 5 31.26 5 1 5 C1 27.44 1 49.88 1 73 C2.65 73 4.3 73 6 73 C6 74.65 6 76.3 6 78 C4.02 78 2.04 78 0 78 C0 73.05 0 68.1 0 63 C-1.65 63 -3.3 63 -5 63 C-5 47.49 -5 31.98 -5 16 C-3.35 15.67 -1.7 15.34 0 15 C0 10.05 0 5.1 0 0 Z " fill="#7F8AAB" transform="translate(63,112)"/>
<path d="M0 0 C29.04 0 58.08 0 88 0 C88 1.32 88 2.64 88 4 C92.95 4.495 92.95 4.495 98 5 C98 6.65 98 8.3 98 10 C94.7 10 91.4 10 88 10 C88 8.35 88 6.7 88 5 C58.3 5 28.6 5 -2 5 C-2 6.65 -2 8.3 -2 10 C-3.65 10 -5.3 10 -7 10 C-7 8.02 -7 6.04 -7 4 C-5.35 4 -3.7 4 -2 4 C-1.34 2.68 -0.68 1.36 0 0 Z " fill="#6794E2" transform="translate(65,107)"/>
<path d="M0 0 C1.65 0 3.3 0 5 0 C5 1.65 5 3.3 5 5 C32.72 5 60.44 5 89 5 C89 3.35 89 1.7 89 0 C90.98 0 92.96 0 95 0 C94.67 3.3 94.34 6.6 94 10 C62.98 10 31.96 10 0 10 C0 6.7 0 3.4 0 0 Z " fill="#245AB7" transform="translate(74,196)"/>
<path d="M0 0 C0.99 0 1.98 0 3 0 C4.26464693 3.88097018 4.13328957 7.76462955 4.11352539 11.79785156 C4.11367142 12.57872131 4.11381744 13.35959106 4.1139679 14.16412354 C4.11327242 16.73965249 4.10549712 19.31510871 4.09765625 21.890625 C4.09579077 23.67852743 4.09436748 25.46643037 4.09336853 27.2543335 C4.08955357 31.95610978 4.07973198 36.65785508 4.06866455 41.35961914 C4.05842849 46.15901266 4.0538662 50.9584112 4.04882812 55.7578125 C4.03810881 65.1718886 4.02104463 74.58594172 4 84 C2.02 84 0.04 84 -2 84 C-1.89266817 73.19534939 -1.78006986 62.39076792 -1.66066074 51.58624363 C-1.60538761 46.56980702 -1.55196074 41.55336463 -1.50268555 36.53686523 C-1.45510657 31.69985134 -1.40276637 26.86291069 -1.34705925 22.02598381 C-1.32660629 20.1763382 -1.30789819 18.32667248 -1.29092598 16.47699165 C-1.2669468 13.89547546 -1.23688382 11.31409903 -1.20532227 8.73266602 C-1.1995668 7.96014999 -1.19381134 7.18763397 -1.18788147 6.39170837 C-1.11405216 1.11405216 -1.11405216 1.11405216 0 0 Z " fill="#4078D3" transform="translate(213,123)"/>
<path d="M0 0 C1.32 0 2.64 0 4 0 C4 16.83 4 33.66 4 51 C-0.52804773 51.90560955 -4.6252883 52.14158295 -9.19921875 52.12939453 C-10.41721664 52.13202301 -10.41721664 52.13202301 -11.65982056 52.13470459 C-14.33573564 52.1390948 -17.01158428 52.13619507 -19.6875 52.1328125 C-21.55167656 52.13348635 -23.41585304 52.13445706 -25.2800293 52.13571167 C-29.18376503 52.13718481 -33.08747787 52.1350464 -36.99121094 52.13037109 C-41.99138716 52.12467405 -46.9915097 52.1279551 -51.99168396 52.13394356 C-55.84013268 52.13755951 -59.68856871 52.13640582 -63.53701782 52.13381577 C-65.38058478 52.13314936 -67.2241529 52.1339649 -69.06771851 52.13629532 C-71.64543709 52.13883878 -74.2230691 52.13495732 -76.80078125 52.12939453 C-77.9402269 52.13243088 -77.9402269 52.13243088 -79.10269165 52.13552856 C-82.86046546 52.12052897 -86.34642592 51.90424949 -90 51 C-90 49.35 -90 47.7 -90 46 C-86.37 46 -82.74 46 -79 46 C-79 47.65 -79 49.3 -79 51 C-55.24 51 -31.48 51 -7 51 C-7 49.35 -7 47.7 -7 46 C-5.02 46 -3.04 46 -1 46 C-1.00523682 44.78417236 -1.01047363 43.56834473 -1.01586914 42.31567383 C-1.03399624 37.79631285 -1.04546021 33.27695508 -1.05493164 28.75756836 C-1.05995422 26.80313577 -1.06677349 24.84870694 -1.07543945 22.89428711 C-1.08759589 20.08185907 -1.09324913 17.26948081 -1.09765625 14.45703125 C-1.10281754 13.58601273 -1.10797882 12.7149942 -1.11329651 11.81758118 C-1.11367154 7.74374461 -1.02821533 3.97410561 0 0 Z " fill="#9BA8D2" transform="translate(164,144)"/>
<path d="M0 0 C1.65 0 3.3 0 5 0 C5 3.3 5 6.6 5 10 C3.68 10.33 2.36 10.66 1 11 C0.67 26.51 0.34 42.02 0 58 C1.65 58 3.3 58 5 58 C5 59.65 5 61.3 5 63 C3.35 63 1.7 63 0 63 C0 64.65 0 66.3 0 68 C-2.475 68.495 -2.475 68.495 -5 69 C-5 48.21 -5 27.42 -5 6 C-3.35 5.67 -1.7 5.34 0 5 C0 3.35 0 1.7 0 0 Z " fill="#447AD2" transform="translate(58,117)"/>
<path d="M0 0 C1.98 0 3.96 0 6 0 C6 25.74 6 51.48 6 78 C0.72 78 -4.56 78 -10 78 C-10 76.35 -10 74.7 -10 73 C-6.7 73 -3.4 73 0 73 C-0.00523682 71.94087402 -0.01047363 70.88174805 -0.01586914 69.79052734 C-0.03403406 65.84327039 -0.04547389 61.8960171 -0.05493164 57.94873047 C-0.05994564 56.24364601 -0.0667585 54.53856582 -0.07543945 52.83349609 C-0.08763385 50.37596581 -0.09325775 47.91849262 -0.09765625 45.4609375 C-0.10281754 44.70444916 -0.10797882 43.94796082 -0.11329651 43.16854858 C-0.1137333 39.00317437 0.18342962 35.08567741 1 31 C2.32 31 3.64 31 5 31 C5 22.42 5 13.84 5 5 C3.35 5 1.7 5 0 5 C0 3.35 0 1.7 0 0 Z " fill="#6A8ED3" transform="translate(206,118)"/>
<path d="M0 0 C3.3 0 6.6 0 10 0 C10 3.3 10 6.6 10 10 C15.61 10.33 21.22 10.66 27 11 C27 12.98 27 14.96 27 17 C25.35 17 23.7 17 22 17 C22 18.65 22 20.3 22 22 C20.35 22 18.7 22 17 22 C17 32.23 17 42.46 17 53 C16.67 53 16.34 53 16 53 C16 44.42 16 35.84 16 27 C14.35 27 12.7 27 11 27 C11 44.16 11 61.32 11 79 C9.02 79 7.04 79 5 79 C5 78.67 5 78.34 5 78 C6.65 78 8.3 78 10 78 C10 55.89 10 33.78 10 11 C8.35 11 6.7 11 5 11 C5 9.02 5 7.04 5 5 C3.35 5 1.7 5 0 5 C0 3.35 0 1.7 0 0 Z " fill="#567EC6" transform="translate(158,117)"/>
<path d="M0 0 C0.33 0 0.66 0 1 0 C1 22.44 1 44.88 1 68 C2.65 68 4.3 68 6 68 C6 69.65 6 71.3 6 73 C4.02 73 2.04 73 0 73 C0 68.05 0 63.1 0 58 C-1.65 58 -3.3 58 -5 58 C-5 42.49 -5 26.98 -5 11 C-3.35 10.67 -1.7 10.34 0 10 C0 6.7 0 3.4 0 0 Z " fill="#929FC1" transform="translate(63,117)"/>
<path d="M0 0 C1.65 0 3.3 0 5 0 C5 3.3 5 6.6 5 10 C8.63 10 12.26 10 16 10 C16 11.65 16 13.3 16 15 C17.65 15 19.3 15 21 15 C21 15.33 21 15.66 21 16 C19.35 16 17.7 16 16 16 C16 17.65 16 19.3 16 21 C10.72 21.33 5.44 21.66 0 22 C0 14.74 0 7.48 0 0 Z " fill="#336ECA" transform="translate(58,180)"/>
<path d="M0 0 C1.65 0 3.3 0 5 0 C5.33 1.65 5.66 3.3 6 5 C10.95 5.33 15.9 5.66 21 6 C21 7.65 21 9.3 21 11 C19.35 11 17.7 11 16 11 C16 12.65 16 14.3 16 16 C12.37 16 8.74 16 5 16 C5 14.35 5 12.7 5 11 C2.13275314 11.57344937 1.1385485 11.8614515 -1 14 C-1.18451025 4.58997722 -1.18451025 4.58997722 0 0 Z " fill="#2D6BCB" transform="translate(180,191)"/>
<path d="M0 0 C0 1.98 0 3.96 0 6 C-5.28 6 -10.56 6 -16 6 C-16 7.65 -16 9.3 -16 11 C-17.65 11 -19.3 11 -21 11 C-21 12.65 -21 14.3 -21 16 C-22.98 16 -24.96 16 -27 16 C-27 12.37 -27 8.74 -27 5 C-25.35 5 -23.7 5 -22 5 C-21.67 3.68 -21.34 2.36 -21 1 C-13.97195301 0.14626761 -7.07721931 -0.12109311 0 0 Z " fill="#6B92D8" transform="translate(212,112)"/>
<path d="M0 0 C1.65 0 3.3 0 5 0 C5 11.88 5 23.76 5 36 C3.35 36 1.7 36 0 36 C0 24.12 0 12.24 0 0 Z " fill="#D4DBF3" transform="translate(175,139)"/>
<path d="M0 0 C1.98 0 3.96 0 6 0 C6.02492888 5.08625949 6.04296724 10.17248252 6.05493164 15.25878906 C6.05992544 16.98503235 6.06672279 18.71127149 6.07543945 20.4375 C6.11931286 29.35670477 6.15555011 38.13774953 5 47 C3.515 47.495 3.515 47.495 2 48 C1.67 54.6 1.34 61.2 1 68 C0.67 68 0.34 68 0 68 C-0.02483806 63.6949909 -0.04292512 59.39002049 -0.05493164 55.08496094 C-0.05994045 53.62238843 -0.06674938 52.15982089 -0.07543945 50.69726562 C-0.08765698 48.58722709 -0.09326295 46.47725513 -0.09765625 44.3671875 C-0.10289307 43.09987793 -0.10812988 41.83256836 -0.11352539 40.52685547 C-0.00813747 37.252804 0.37549774 34.21110848 1 31 C2.32 31 3.64 31 5 31 C5 22.42 5 13.84 5 5 C3.35 5 1.7 5 0 5 C0 3.35 0 1.7 0 0 Z " fill="#B6C0DF" transform="translate(206,118)"/>
<path d="M0 0 C3.63 0 7.26 0 11 0 C11 1.65 11 3.3 11 5 C34.76 5 58.52 5 83 5 C83 3.35 83 1.7 83 0 C84.98 0 86.96 0 89 0 C89 0.33 89 0.66 89 1 C87.35 1 85.7 1 84 1 C84 2.65 84 4.3 84 6 C73.78603757 6.02317688 63.57208141 6.04094239 53.35809803 6.05181217 C48.61526879 6.05702928 43.87245755 6.0641057 39.12963867 6.07543945 C34.55201223 6.08630992 29.97440311 6.09228567 25.39676476 6.09487724 C23.65088313 6.09672398 21.90500244 6.10033018 20.15912819 6.10573006 C17.71259137 6.11299565 15.26612596 6.11398861 12.81958008 6.11352539 C11.73848213 6.1189183 11.73848213 6.1189183 10.63554382 6.12442017 C6.96274991 6.11690241 3.5715114 5.87527242 0 5 C0 3.35 0 1.7 0 0 Z " fill="#B1C1E9" transform="translate(74,190)"/>
<path d="M0 0 C1.65 0 3.3 0 5 0 C5 5.28 5 10.56 5 16 C3.68 16 2.36 16 1 16 C0.67 19.3 0.34 22.6 0 26 C-1.32 26.33 -2.64 26.66 -4 27 C-4 23.37 -4 19.74 -4 16 C-2.68 16 -1.36 16 0 16 C0 10.72 0 5.44 0 0 Z " fill="#DADFF0" transform="translate(163,128)"/>
<path d="M0 0 C1.98 0 3.96 0 6 0 C6 1.65 6 3.3 6 5 C7.65 5.33 9.3 5.66 11 6 C11 7.65 11 9.3 11 11 C12.65 11 14.3 11 16 11 C16 12.65 16 14.3 16 16 C14.02 16 12.04 16 10 16 C10 14.35 10 12.7 10 11 C6.7 11 3.4 11 0 11 C0 7.37 0 3.74 0 0 Z " fill="#BCC9EE" transform="translate(180,175)"/>
<path d="M0 0 C0.99 0 1.98 0 3 0 C3 8.58 3 17.16 3 26 C1.68 26 0.36 26 -1 26 C-1 27.98 -1 29.96 -1 32 C-1.33 32 -1.66 32 -2 32 C-2.0294191 28.52085157 -2.04693792 25.04173583 -2.0625 21.5625 C-2.07087891 20.58861328 -2.07925781 19.61472656 -2.08789062 18.61132812 C-2.10781115 12.65509124 -1.85809885 6.89867953 -1 1 C-0.67 0.67 -0.34 0.34 0 0 Z " fill="#D5DAE8" transform="translate(208,123)"/>
<path d="M0 0 C0.99 0 1.98 0 3 0 C3 8.58 3 17.16 3 26 C1.35 26 -0.3 26 -2 26 C-1.86186975 21.85387186 -1.71321141 17.70818838 -1.5625 13.5625 C-1.52318359 12.37849609 -1.48386719 11.19449219 -1.44335938 9.97460938 C-1.40146484 8.84990234 -1.35957031 7.72519531 -1.31640625 6.56640625 C-1.27974854 5.52427979 -1.24309082 4.48215332 -1.20532227 3.40844727 C-1 1 -1 1 0 0 Z " fill="#98A8D5" transform="translate(208,165)"/>
<path d="M0 0 C1.98 0 3.96 0 6 0 C5.67 3.3 5.34 6.6 5 10 C0.03926578 11.32286246 -4.91111512 11.08893197 -10 11 C-10 9.02 -10 7.04 -10 5 C-6.7 5 -3.4 5 0 5 C0 3.35 0 1.7 0 0 Z " fill="#2664C5" transform="translate(206,197)"/>
<path d="M0 0 C1.32 0 2.64 0 4 0 C4 8.58 4 17.16 4 26 C2.68 26 1.36 26 0 26 C0 17.42 0 8.84 0 0 Z " fill="#435382" transform="translate(170,144)"/>
<path d="M0 0 C1.65 0 3.3 0 5 0 C5 1.98 5 3.96 5 6 C3.35 6 1.7 6 0 6 C0 7.65 0 9.3 0 11 C-1.65 11 -3.3 11 -5 11 C-5 21.23 -5 31.46 -5 42 C-5.33 42 -5.66 42 -6 42 C-6.33 29.79 -6.66 17.58 -7 5 C-4.69 5 -2.38 5 0 5 C0 3.35 0 1.7 0 0 Z " fill="#6D82B3" transform="translate(180,128)"/>
<path d="M0 0 C0.33 0 0.66 0 1 0 C1 8.58 1 17.16 1 26 C2.32 26 3.64 26 5 26 C5.02725341 27.7290774 5.04650987 29.45828176 5.0625 31.1875 C5.07410156 32.15042969 5.08570313 33.11335938 5.09765625 34.10546875 C5.00486622 36.85576513 4.62111685 39.32479591 4 42 C3.01 42 2.02 42 1 42 C-0.13702786 37.47942904 -0.12814634 33.04660217 -0.09765625 28.41796875 C-0.09553383 27.19670036 -0.09553383 27.19670036 -0.09336853 25.95075989 C-0.08779317 23.36296844 -0.07524524 20.77526508 -0.0625 18.1875 C-0.05748181 16.42773563 -0.05291946 14.66796989 -0.04882812 12.90820312 C-0.03783181 8.60543506 -0.02058421 4.30273244 0 0 Z " fill="#2E57A8" transform="translate(169,144)"/>
<path d="M0 0 C1.98 0 3.96 0 6 0 C6.33 1.65 6.66 3.3 7 5 C10.3 5.33 13.6 5.66 17 6 C17 7.65 17 9.3 17 11 C13.37 11 9.74 11 6 11 C6 9.35 6 7.7 6 6 C3.13275314 6.57344937 2.1385485 6.8614515 0 9 C0 6.03 0 3.06 0 0 Z " fill="#2D75DC" transform="translate(179,196)"/>
<path d="M0 0 C0.33 0 0.66 0 1 0 C1 1.65 1 3.3 1 5 C1.99 5 2.98 5 4 5 C4.33 6.65 4.66 8.3 5 10 C5.33 10 5.66 10 6 10 C6 13.3 6 16.6 6 20 C4 21 4 21 0 20 C0 13.4 0 6.8 0 0 Z " fill="#2B64C1" transform="translate(169,181)"/>
<path d="M0 0 C3.3 0 6.6 0 10 0 C10 1.65 10 3.3 10 5 C8.68 5 7.36 5 6 5 C6 6.65 6 8.3 6 10 C4.02 10 2.04 10 0 10 C0 6.7 0 3.4 0 0 Z " fill="#648CD4" transform="translate(185,118)"/>
<path d="M0 0 C3.3 0 6.6 0 10 0 C11.125 6.625 11.125 6.625 10 10 C8.35 10 6.7 10 5 10 C5 8.35 5 6.7 5 5 C3.02 5 1.04 5 -1 5 C-0.67 3.35 -0.34 1.7 0 0 Z " fill="#2C76DE" transform="translate(64,201)"/>
<path d="M0 0 C1.65 0 3.3 0 5 0 C5 4.95 5 9.9 5 15 C3.35 15 1.7 15 0 15 C0 10.05 0 5.1 0 0 Z " fill="#C3CDEE" transform="translate(175,160)"/>
<path d="M0 0 C1.65 0 3.3 0 5 0 C5 1.65 5 3.3 5 5 C9.95 5 14.9 5 20 5 C20 5.33 20 5.66 20 6 C18.35 6 16.7 6 15 6 C15 7.65 15 9.3 15 11 C13.35 11 11.7 11 10 11 C10 9.35 10 7.7 10 6 C6.7 6 3.4 6 0 6 C0 4.02 0 2.04 0 0 Z " fill="#5C71A9" transform="translate(191,191)"/>
<path d="M0 0 C1.98 0 3.96 0 6 0 C6 12.21 6 24.42 6 37 C5.67 37 5.34 37 5 37 C5 26.44 5 15.88 5 5 C3.35 5 1.7 5 0 5 C0 3.35 0 1.7 0 0 Z " fill="#8BA8DC" transform="translate(206,118)"/>
<path d="M0 0 C1.98 0 3.96 0 6 0 C5.67 3.3 5.34 6.6 5 10 C3.35 10 1.7 10 0 10 C0 6.7 0 3.4 0 0 Z " fill="#2968C9" transform="translate(163,196)"/>
<path d="M0 0 C3.63 0 7.26 0 11 0 C11 1.98 11 3.96 11 6 C7.37 5.67 3.74 5.34 0 5 C0 3.35 0 1.7 0 0 Z " fill="#628FDD" transform="translate(201,112)"/>
<path d="M0 0 C3.63 0 7.26 0 11 0 C11 1.65 11 3.3 11 5 C7.37 5 3.74 5 0 5 C0 3.35 0 1.7 0 0 Z " fill="#5486DA" transform="translate(169,128)"/>
<path d="M0 0 C2.475 0.495 2.475 0.495 5 1 C5 4.3 5 7.6 5 11 C3.35 11 1.7 11 0 11 C0 7.37 0 3.74 0 0 Z " fill="#3D69BA" transform="translate(169,133)"/>
<path d="M0 0 C2.475 0.495 2.475 0.495 5 1 C5 4.3 5 7.6 5 11 C3.35 11.33 1.7 11.66 0 12 C0 8.04 0 4.08 0 0 Z " fill="#327AE0" transform="translate(58,190)"/>
<path d="M0 0 C1.65 0 3.3 0 5 0 C5.33 3.3 5.66 6.6 6 10 C4.35 10 2.7 10 1 10 C0.67 6.7 0.34 3.4 0 0 Z " fill="#3060B4" transform="translate(185,186)"/>
<path d="M0 0 C1.32 0 2.64 0 4 0 C4 3.3 4 6.6 4 10 C2.68 10 1.36 10 0 10 C0 11.98 0 13.96 0 16 C-0.33 16 -0.66 16 -1 16 C-1.02725341 14.2709226 -1.04650987 12.54171824 -1.0625 10.8125 C-1.07410156 9.84957031 -1.08570313 8.88664063 -1.09765625 7.89453125 C-1.00486622 5.14423487 -0.62111685 2.67520409 0 0 Z " fill="#C4CBE3" transform="translate(207,139)"/>
<path d="M0 0 C1.65 0 3.3 0 5 0 C5 3.3 5 6.6 5 10 C3.35 10.33 1.7 10.66 0 11 C0 7.37 0 3.74 0 0 Z " fill="#8390B5" transform="translate(58,117)"/>
<path d="M0 0 C1.65 0 3.3 0 5 0 C5 3.3 5 6.6 5 10 C3.35 10 1.7 10 0 10 C0 6.7 0 3.4 0 0 Z " fill="#2761C1" transform="translate(74,196)"/>
<path d="M0 0 C3.3 0 6.6 0 10 0 C10 1.65 10 3.3 10 5 C6.7 5 3.4 5 0 5 C0 3.35 0 1.7 0 0 Z " fill="#A4B6E7" transform="translate(196,191)"/>
<path d="M0 0 C0 1.65 0 3.3 0 5 C-3.3 5.33 -6.6 5.66 -10 6 C-10 4.35 -10 2.7 -10 1 C-6.59437148 0.22157062 -3.49234244 -0.09978121 0 0 Z " fill="#7E8FBD" transform="translate(168,190)"/>
<path d="M0 0 C1.65 0 3.3 0 5 0 C5 3.3 5 6.6 5 10 C3.35 10 1.7 10 0 10 C0 6.7 0 3.4 0 0 Z " fill="#2C64BD" transform="translate(58,180)"/>
<path d="M0 0 C1.65 0 3.3 0 5 0 C5 3.3 5 6.6 5 10 C3.35 10 1.7 10 0 10 C0 6.7 0 3.4 0 0 Z " fill="#C9CFE2" transform="translate(163,128)"/>
<path d="M0 0 C3.3 0 6.6 0 10 0 C10 1.65 10 3.3 10 5 C6.7 5 3.4 5 0 5 C0 3.35 0 1.7 0 0 Z " fill="#6293E7" transform="translate(158,117)"/>
<path d="M0 0 C2.475 0.495 2.475 0.495 5 1 C5 3.97 5 6.94 5 10 C3.35 10 1.7 10 0 10 C0 6.7 0 3.4 0 0 Z " fill="#A4B3E4" transform="translate(64,175)"/>
<path d="M0 0 C1.32 0 2.64 0 4 0 C4 1.65 4 3.3 4 5 C3.01 5.495 3.01 5.495 2 6 C0.60530885 9.73149156 0.66473156 13.80883629 0.4375 17.75 C0.39431641 18.44738281 0.35113281 19.14476562 0.30664062 19.86328125 C0.20110404 21.57531922 0.1001009 23.28763561 0 25 C-0.33 25 -0.66 25 -1 25 C-1.02917228 21.77085248 -1.04685663 18.54173917 -1.0625 15.3125 C-1.07087891 14.40048828 -1.07925781 13.48847656 -1.08789062 12.54882812 C-1.09111328 11.66259766 -1.09433594 10.77636719 -1.09765625 9.86328125 C-1.10289307 9.05157471 -1.10812988 8.23986816 -1.11352539 7.40356445 C-0.9929791 4.85135327 -0.559949 2.48973863 0 0 Z " fill="#B7BFDE" transform="translate(164,144)"/>
<path d="M0 0 C1.32 0 2.64 0 4 0 C4 1.65 4 3.3 4 5 C3.01 5.33 2.02 5.66 1 6 C0.67 12.6 0.34 19.2 0 26 C-0.33 26 -0.66 26 -1 26 C-1.0291544 22.60418484 -1.04685068 19.20840214 -1.0625 15.8125 C-1.07087891 14.85279297 -1.07925781 13.89308594 -1.08789062 12.90429688 C-1.09111328 11.97294922 -1.09433594 11.04160156 -1.09765625 10.08203125 C-1.10289307 9.22843018 -1.10812988 8.3748291 -1.11352539 7.49536133 C-0.99579323 4.90753253 -0.57107044 2.52338047 0 0 Z " fill="#ABB7DD" transform="translate(207,160)"/>
<path d="M0 0 C1.98 0 3.96 0 6 0 C6.33 1.98 6.66 3.96 7 6 C6.21625 6.12375 5.4325 6.2475 4.625 6.375 C1.85942178 6.79117993 1.85942178 6.79117993 0 9 C0 6.03 0 3.06 0 0 Z " fill="#3077DD" transform="translate(179,196)"/>
<path d="M0 0 C0.33 0 0.66 0 1 0 C1 3.3 1 6.6 1 10 C-1.49092811 11.24546405 -2.41080733 10.7767578 -5 10 C-5 8.35 -5 6.7 -5 5 C-3.35 5 -1.7 5 0 5 C0 3.35 0 1.7 0 0 Z " fill="#2E71D4" transform="translate(174,191)"/>
<path d="M0 0 C1.65 0 3.3 0 5 0 C5 1.65 5 3.3 5 5 C6.65 5 8.3 5 10 5 C10 5.33 10 5.66 10 6 C6.7 6 3.4 6 0 6 C0 4.02 0 2.04 0 0 Z " fill="#778AC2" transform="translate(69,190)"/>
<path d="M0 0 C0.33 0 0.66 0 1 0 C1 1.65 1 3.3 1 5 C2.65 5 4.3 5 6 5 C6 6.65 6 8.3 6 10 C4.02 10 2.04 10 0 10 C0 6.7 0 3.4 0 0 Z " fill="#6F83B9" transform="translate(63,180)"/>
<path d="M0 0 C1.98 0 3.96 0 6 0 C6.042721 1.66611905 6.04063832 3.33382885 6 5 C5 6 5 6 2.4375 6.0625 C1.2309375 6.0315625 1.2309375 6.0315625 0 6 C0 4.02 0 2.04 0 0 Z " fill="#DFE4EF" transform="translate(185,128)"/>
<path d="M0 0 C2.31 0 4.62 0 7 0 C6.34 1.98 5.68 3.96 5 6 C3.35 5.67 1.7 5.34 0 5 C0 3.35 0 1.7 0 0 Z " fill="#2B76DE" transform="translate(163,206)"/>
<path d="M0 0 C0 1.98 0 3.96 0 6 C-1.98 6 -3.96 6 -6 6 C-6 4.35 -6 2.7 -6 1 C-1.125 0 -1.125 0 0 0 Z " fill="#2E78E0" transform="translate(217,201)"/>
<path d="M0 0 C1.98 0 3.96 0 6 0 C6 1.65 6 3.3 6 5 C4.02 5 2.04 5 0 5 C0 3.35 0 1.7 0 0 Z " fill="#1F3B7C" transform="translate(206,197)"/>
<path d="M0 0 C1.98 0 3.96 0 6 0 C6 1.65 6 3.3 6 5 C4.02 5 2.04 5 0 5 C0 3.35 0 1.7 0 0 Z " fill="#97A8DD" transform="translate(190,186)"/>
<path d="M0 0 C1.65 0 3.3 0 5 0 C5 1.98 5 3.96 5 6 C3.35 6 1.7 6 0 6 C0 4.02 0 2.04 0 0 Z " fill="#687AAC" transform="translate(175,175)"/>
<path d="M0 0 C1.65 0 3.3 0 5 0 C5 2.97 5 5.94 5 9 C4.67 7.68 4.34 6.36 4 5 C2.68 5.33 1.36 5.66 0 6 C0 4.02 0 2.04 0 0 Z " fill="#6293E6" transform="translate(212,118)"/>
<path d="M0 0 C1.98 0 3.96 0 6 0 C6 1.65 6 3.3 6 5 C4.02 5 2.04 5 0 5 C0 3.35 0 1.7 0 0 Z " fill="#314882" transform="translate(147,112)"/>
<path d="M0 0 C1.98 0 3.96 0 6 0 C6 1.65 6 3.3 6 5 C4.02 5 2.04 5 0 5 C0 3.35 0 1.7 0 0 Z " fill="#314882" transform="translate(63,112)"/>
<path d="M0 0 C1.98 0 3.96 0 6 0 C5.67 1.65 5.34 3.3 5 5 C3.35 5.33 1.7 5.66 0 6 C0 4.02 0 2.04 0 0 Z " fill="#F0F1F5" transform="translate(196,118)"/>
<path d="M0 0 C1.65 0 3.3 0 5 0 C5 1.65 5 3.3 5 5 C3.35 5.33 1.7 5.66 0 6 C0 4.02 0 2.04 0 0 Z " fill="#296BCE" transform="translate(206,202)"/>
<path d="M0 0 C1.65 0 3.3 0 5 0 C5 1.65 5 3.3 5 5 C3.35 5.33 1.7 5.66 0 6 C0 4.02 0 2.04 0 0 Z " fill="#6293E5" transform="translate(53,117)"/>
<path d="M0 0 C1.65 0 3.3 0 5 0 C5 1.65 5 3.3 5 5 C3.35 5 1.7 5 0 5 C0 3.35 0 1.7 0 0 Z " fill="#296DD1" transform="translate(191,202)"/>
<path d="M0 0 C1.65 0 3.3 0 5 0 C5 1.65 5 3.3 5 5 C3.35 5 1.7 5 0 5 C0 3.35 0 1.7 0 0 Z " fill="#2A6ED0" transform="translate(69,201)"/>
<path d="M0 0 C1.65 0 3.3 0 5 0 C5 1.65 5 3.3 5 5 C3.35 5 1.7 5 0 5 C0 3.35 0 1.7 0 0 Z " fill="#314881" transform="translate(196,197)"/>
<path d="M0 0 C1.65 0 3.3 0 5 0 C5 1.65 5 3.3 5 5 C3.35 5 1.7 5 0 5 C0 3.35 0 1.7 0 0 Z " fill="#265CB6" transform="translate(191,197)"/>
<path d="M0 0 C1.65 0 3.3 0 5 0 C5 1.65 5 3.3 5 5 C3.35 5 1.7 5 0 5 C0 3.35 0 1.7 0 0 Z " fill="#19316D" transform="translate(163,196)"/>
<path d="M0 0 C1.65 0 3.3 0 5 0 C5 1.65 5 3.3 5 5 C3.35 5 1.7 5 0 5 C0 3.35 0 1.7 0 0 Z " fill="#5D6EA0" transform="translate(158,196)"/>
<path d="M0 0 C1.65 0 3.3 0 5 0 C5 1.65 5 3.3 5 5 C3.35 5 1.7 5 0 5 C0 3.35 0 1.7 0 0 Z " fill="#5C6FA8" transform="translate(79,196)"/>
<path d="M0 0 C1.65 0 3.3 0 5 0 C5 1.65 5 3.3 5 5 C3.35 5 1.7 5 0 5 C0 3.35 0 1.7 0 0 Z " fill="#283A73" transform="translate(74,196)"/>
<path d="M0 0 C1.65 0 3.3 0 5 0 C5 1.65 5 3.3 5 5 C3.35 5 1.7 5 0 5 C0 3.35 0 1.7 0 0 Z " fill="#265DB7" transform="translate(69,196)"/>
<path d="M0 0 C1.65 0 3.3 0 5 0 C5 1.65 5 3.3 5 5 C3.35 5 1.7 5 0 5 C0 3.35 0 1.7 0 0 Z " fill="#8A9DD9" transform="translate(196,191)"/>
<path d="M0 0 C1.65 0 3.3 0 5 0 C5 1.65 5 3.3 5 5 C3.35 5 1.7 5 0 5 C0 3.35 0 1.7 0 0 Z " fill="#8597CC" transform="translate(206,191)"/>
<path d="M0 0 C1.65 0 3.3 0 5 0 C5 1.65 5 3.3 5 5 C3.35 5 1.7 5 0 5 C0 3.35 0 1.7 0 0 Z " fill="#8CA0D9" transform="translate(158,191)"/>
<path d="M0 0 C2.475 0.495 2.475 0.495 5 1 C5 2.65 5 4.3 5 6 C3.35 5.67 1.7 5.34 0 5 C0 3.35 0 1.7 0 0 Z " fill="#3274D5" transform="translate(58,190)"/>
<path d="M0 0 C1.65 0 3.3 0 5 0 C5 1.65 5 3.3 5 5 C3.35 5 1.7 5 0 5 C0 3.35 0 1.7 0 0 Z " fill="#677AB1" transform="translate(185,186)"/>
<path d="M0 0 C1.65 0 3.3 0 5 0 C5 1.65 5 3.3 5 5 C3.35 5 1.7 5 0 5 C0 3.35 0 1.7 0 0 Z " fill="#295CB6" transform="translate(180,186)"/>
<path d="M0 0 C1.65 0 3.3 0 5 0 C5 1.65 5 3.3 5 5 C3.35 5 1.7 5 0 5 C0 3.35 0 1.7 0 0 Z " fill="#B0BFEA" transform="translate(69,185)"/>
<path d="M0 0 C1.65 0 3.3 0 5 0 C5 1.65 5 3.3 5 5 C3.35 5 1.7 5 0 5 C0 3.35 0 1.7 0 0 Z " fill="#90A0D5" transform="translate(163,185)"/>
<path d="M0 0 C1.65 0 3.3 0 5 0 C5 1.65 5 3.3 5 5 C3.35 5 1.7 5 0 5 C0 3.35 0 1.7 0 0 Z " fill="#8697C8" transform="translate(180,181)"/>
<path d="M0 0 C1.65 0 3.3 0 5 0 C5 1.65 5 3.3 5 5 C3.35 5 1.7 5 0 5 C0 3.35 0 1.7 0 0 Z " fill="#2A5CB4" transform="translate(175,181)"/>
<path d="M0 0 C1.65 0 3.3 0 5 0 C5 1.65 5 3.3 5 5 C3.35 5 1.7 5 0 5 C0 3.35 0 1.7 0 0 Z " fill="#1C346F" transform="translate(58,180)"/>
<path d="M0 0 C1.65 0 3.3 0 5 0 C5 1.65 5 3.3 5 5 C3.35 5 1.7 5 0 5 C0 3.35 0 1.7 0 0 Z " fill="#B3C1E9" transform="translate(180,176)"/>
<path d="M0 0 C1.65 0 3.3 0 5 0 C5 1.65 5 3.3 5 5 C3.35 5 1.7 5 0 5 C0 3.35 0 1.7 0 0 Z " fill="#5B6EA3" transform="translate(58,175)"/>
<path d="M0 0 C1.65 0 3.3 0 5 0 C5 1.65 5 3.3 5 5 C3.35 5 1.7 5 0 5 C0 3.35 0 1.7 0 0 Z " fill="#A8B5DE" transform="translate(175,170)"/>
<path d="M0 0 C1.65 0 3.3 0 5 0 C5 1.65 5 3.3 5 5 C3.35 5 1.7 5 0 5 C0 3.35 0 1.7 0 0 Z " fill="#D6DAED" transform="translate(175,139)"/>
<path d="M0 0 C2.475 0.495 2.475 0.495 5 1 C5 2.65 5 4.3 5 6 C3.35 5.67 1.7 5.34 0 5 C0 3.35 0 1.7 0 0 Z " fill="#4776CA" transform="translate(169,133)"/>
<path d="M0 0 C1.65 0 3.3 0 5 0 C5 1.65 5 3.3 5 5 C3.35 5 1.7 5 0 5 C0 3.35 0 1.7 0 0 Z " fill="#6C7CA5" transform="translate(180,128)"/>
<path d="M0 0 C1.65 0 3.3 0 5 0 C5 1.65 5 3.3 5 5 C3.35 5 1.7 5 0 5 C0 3.35 0 1.7 0 0 Z " fill="#A3ACC6" transform="translate(163,128)"/>
<path d="M0 0 C1.65 0 3.3 0 5 0 C5 1.65 5 3.3 5 5 C3.35 5 1.7 5 0 5 C0 3.35 0 1.7 0 0 Z " fill="#4F6291" transform="translate(185,123)"/>
<path d="M0 0 C1.65 0 3.3 0 5 0 C5 1.65 5 3.3 5 5 C3.35 5 1.7 5 0 5 C0 3.35 0 1.7 0 0 Z " fill="#5787D9" transform="translate(180,123)"/>
<path d="M0 0 C1.65 0 3.3 0 5 0 C5 1.65 5 3.3 5 5 C3.35 5 1.7 5 0 5 C0 3.35 0 1.7 0 0 Z " fill="#DADFE9" transform="translate(158,122)"/>
<path d="M0 0 C1.65 0 3.3 0 5 0 C5 1.65 5 3.3 5 5 C3.35 5 1.7 5 0 5 C0 3.35 0 1.7 0 0 Z " fill="#5484D5" transform="translate(163,122)"/>
<path d="M0 0 C1.65 0 3.3 0 5 0 C5 1.65 5 3.3 5 5 C3.35 5 1.7 5 0 5 C0 3.35 0 1.7 0 0 Z " fill="#B3B9CE" transform="translate(206,118)"/>
<path d="M0 0 C1.65 0 3.3 0 5 0 C5 1.65 5 3.3 5 5 C3.35 5 1.7 5 0 5 C0 3.35 0 1.7 0 0 Z " fill="#699EF1" transform="translate(180,118)"/>
<path d="M0 0 C1.65 0 3.3 0 5 0 C5 1.65 5 3.3 5 5 C3.35 5 1.7 5 0 5 C0 3.35 0 1.7 0 0 Z " fill="#2B3F7A" transform="translate(158,117)"/>
<path d="M0 0 C1.65 0 3.3 0 5 0 C5 1.65 5 3.3 5 5 C3.35 5 1.7 5 0 5 C0 3.35 0 1.7 0 0 Z " fill="#C9CDDB" transform="translate(153,117)"/>
<path d="M0 0 C1.65 0 3.3 0 5 0 C5 1.65 5 3.3 5 5 C3.35 5 1.7 5 0 5 C0 3.35 0 1.7 0 0 Z " fill="#394D84" transform="translate(58,117)"/>
<path d="M0 0 C1.65 0 3.3 0 5 0 C5 1.65 5 3.3 5 5 C3.35 5 1.7 5 0 5 C0 3.35 0 1.7 0 0 Z " fill="#5D8BDB" transform="translate(153,112)"/>
<path d="M0 0 C1.65 0 3.3 0 5 0 C5 1.65 5 3.3 5 5 C3.35 5 1.7 5 0 5 C0 3.35 0 1.7 0 0 Z " fill="#69779D" transform="translate(69,112)"/>
<path d="M0 0 C1.65 0 3.3 0 5 0 C5 1.65 5 3.3 5 5 C3.35 5 1.7 5 0 5 C0 3.35 0 1.7 0 0 Z " fill="#6FA2F3" transform="translate(53,112)"/>
<path d="M0 0 C1.65 0 3.3 0 5 0 C5 1.65 5 3.3 5 5 C3.35 5 1.7 5 0 5 C0 3.35 0 1.7 0 0 Z " fill="#6F9FEF" transform="translate(201,107)"/>
<path d="M0 0 C2.475 0.495 2.475 0.495 5 1 C5 2.32 5 3.64 5 5 C3.35 5 1.7 5 0 5 C0 3.35 0 1.7 0 0 Z " fill="#C0CCEF" transform="translate(64,175)"/>
<path d="M0 0 C1.65 0 3.3 0 5 0 C5 1.32 5 2.64 5 4 C3.35 4 1.7 4 0 4 C0 2.68 0 1.36 0 0 Z " fill="#98AAE1" transform="translate(74,191)"/>
<path d="M0 0 C1.32 0 2.64 0 4 0 C4 1.65 4 3.3 4 5 C2.68 5 1.36 5 0 5 C0 3.35 0 1.7 0 0 Z " fill="#285FB9" transform="translate(64,191)"/>
<path d="M0 0 C1.32 0 2.64 0 4 0 C4 1.65 4 3.3 4 5 C2.68 5 1.36 5 0 5 C0 3.35 0 1.7 0 0 Z " fill="#354576" transform="translate(170,165)"/>
<path d="M0 0 C1.32 0 2.64 0 4 0 C4 1.65 4 3.3 4 5 C2.68 5 1.36 5 0 5 C0 3.35 0 1.7 0 0 Z " fill="#3A4A7D" transform="translate(170,144)"/>
<path d="M0 0 C1.32 0 2.64 0 4 0 C4 1.65 4 3.3 4 5 C2.68 5 1.36 5 0 5 C0 3.35 0 1.7 0 0 Z " fill="#C9D0E5" transform="translate(164,139)"/>
<path d="M0 0 C1.65 0 3.3 0 5 0 C5 1.32 5 2.64 5 4 C3.35 4 1.7 4 0 4 C0 2.68 0 1.36 0 0 Z " fill="#7582A9" transform="translate(175,134)"/>
<path d="M0 0 C1.32 0 2.64 0 4 0 C4 1.65 4 3.3 4 5 C2.68 5 1.36 5 0 5 C0 3.35 0 1.7 0 0 Z " fill="#445688" transform="translate(191,118)"/>
<path d="M0 0 C1.65 0 3.3 0 5 0 C5 1.32 5 2.64 5 4 C3.35 4 1.7 4 0 4 C0 2.68 0 1.36 0 0 Z " fill="#4A5C8E" transform="translate(201,113)"/>
<path d="M0 0 C1.65 0 3.3 0 5 0 C5 1.32 5 2.64 5 4 C3.35 4 1.7 4 0 4 C0 2.68 0 1.36 0 0 Z " fill="#5C8BDC" transform="translate(196,113)"/>
<path d="M0 0 C1.32 0 2.64 0 4 0 C4 1.65 4 3.3 4 5 C2.68 5 1.36 5 0 5 C0 3.35 0 1.7 0 0 Z " fill="#608FDF" transform="translate(59,112)"/>
</svg>
